<global>
amp_veltrack=0
ampeg_release=7.00

<group>
group_label=RR1
seq_length=4
seq_position=1

<region>
hivel=103
key=A#2
lovel=78
sample=Timpani_Soft_Mallet_sustain_F_A#2_RR1.opus

<region>
hivel=103
key=A2
lovel=78
sample=Timpani_Soft_Mallet_sustain_F_A2_RR1.opus

<region>
hivel=103
key=A3
lovel=78
sample=Timpani_Soft_Mallet_sustain_F_A3_RR1.opus

<region>
hivel=103
key=B2
lovel=78
sample=Timpani_Soft_Mallet_sustain_F_B2_RR1.opus

<region>
hivel=103
key=C#2
lovel=78
sample=Timpani_Soft_Mallet_sustain_F_C#2_RR1.opus

<region>
hivel=103
key=C#3
lovel=78
sample=Timpani_Soft_Mallet_sustain_F_C#3_RR1.opus

<region>
hivel=103
key=C2
lovel=78
offset=3596
sample=Timpani_Soft_Mallet_sustain_F_C2_RR1.opus

<region>
hivel=103
key=C3
lovel=78
sample=Timpani_Soft_Mallet_sustain_F_C3_RR1.opus

<region>
hivel=103
key=D#2
lovel=78
sample=Timpani_Soft_Mallet_sustain_F_D#2_RR1.opus

<region>
hivel=103
key=D#3
lovel=78
sample=Timpani_Soft_Mallet_sustain_F_D#3_RR1.opus

<region>
hivel=103
key=D2
lovel=78
sample=Timpani_Soft_Mallet_sustain_F_D2_RR1.opus

<region>
hivel=103
key=D3
lovel=78
sample=Timpani_Soft_Mallet_sustain_F_D3_RR1.opus

<region>
hivel=103
key=E2
lovel=78
sample=Timpani_Soft_Mallet_sustain_F_E2_RR1.opus

<region>
hivel=103
key=E3
lovel=78
sample=Timpani_Soft_Mallet_sustain_F_E3_RR1.opus

<region>
hivel=103
key=F#2
lovel=78
sample=Timpani_Soft_Mallet_sustain_F_F#2_RR1.opus

<region>
hivel=103
key=F#3
lovel=78
sample=Timpani_Soft_Mallet_sustain_F_F#3_RR1.opus

<region>
hivel=103
key=F2
lovel=78
offset=4602
sample=Timpani_Soft_Mallet_sustain_F_F2_RR1.opus

<region>
hivel=103
key=F3
lovel=78
offset=3953
sample=Timpani_Soft_Mallet_sustain_F_F3_RR1.opus

<region>
hivel=103
key=G#2
lovel=78
sample=Timpani_Soft_Mallet_sustain_F_G#2_RR1.opus

<region>
hivel=103
key=G#3
lovel=78
sample=Timpani_Soft_Mallet_sustain_F_G#3_RR1.opus

<region>
hivel=103
key=G2
lovel=78
sample=Timpani_Soft_Mallet_sustain_F_G2_RR1.opus

<region>
hivel=103
key=G3
lovel=78
sample=Timpani_Soft_Mallet_sustain_F_G3_RR1.opus

<region>
hivel=127
key=A#2
lovel=104
sample=Timpani_Soft_Mallet_sustain_FF_A#2_RR1.opus

<region>
hivel=127
key=A2
lovel=104
sample=Timpani_Soft_Mallet_sustain_FF_A2_RR1.opus

<region>
hivel=127
key=A3
lovel=104
sample=Timpani_Soft_Mallet_sustain_FF_A3_RR1.opus

<region>
hivel=127
key=B2
lovel=104
sample=Timpani_Soft_Mallet_sustain_FF_B2_RR1.opus

<region>
hivel=127
key=C#2
lovel=104
sample=Timpani_Soft_Mallet_sustain_FF_C#2_RR1.opus

<region>
hivel=127
key=C#3
lovel=104
sample=Timpani_Soft_Mallet_sustain_FF_C#3_RR1.opus

<region>
hivel=127
key=C2
lovel=104
sample=Timpani_Soft_Mallet_sustain_FF_C2_RR1.opus

<region>
hivel=127
key=C3
lovel=104
sample=Timpani_Soft_Mallet_sustain_FF_C3_RR1.opus

<region>
hivel=127
key=D#2
lovel=104
sample=Timpani_Soft_Mallet_sustain_FF_D#2_RR1.opus

<region>
hivel=127
key=D#3
lovel=104
sample=Timpani_Soft_Mallet_sustain_FF_D#3_RR1.opus

<region>
hivel=127
key=D2
lovel=104
sample=Timpani_Soft_Mallet_sustain_FF_D2_RR1.opus

<region>
hivel=127
key=D3
lovel=104
sample=Timpani_Soft_Mallet_sustain_FF_D3_RR1.opus

<region>
hivel=127
key=E2
lovel=104
sample=Timpani_Soft_Mallet_sustain_FF_E2_RR1.opus

<region>
hivel=127
key=E3
lovel=104
sample=Timpani_Soft_Mallet_sustain_FF_E3_RR1.opus

<region>
hivel=127
key=F#2
lovel=104
sample=Timpani_Soft_Mallet_sustain_FF_F#2_RR1.opus

<region>
hivel=127
key=F#3
lovel=104
sample=Timpani_Soft_Mallet_sustain_FF_F#3_RR1.opus

<region>
hivel=127
key=F2
lovel=104
sample=Timpani_Soft_Mallet_sustain_FF_F2_RR1.opus

<region>
hivel=127
key=F3
lovel=104
sample=Timpani_Soft_Mallet_sustain_FF_F3_RR1.opus

<region>
hivel=127
key=G#2
lovel=104
sample=Timpani_Soft_Mallet_sustain_FF_G#2_RR1.opus

<region>
hivel=127
key=G#3
lovel=104
sample=Timpani_Soft_Mallet_sustain_FF_G#3_RR1.opus

<region>
hivel=127
key=G2
lovel=104
sample=Timpani_Soft_Mallet_sustain_FF_G2_RR1.opus

<region>
hivel=127
key=G3
lovel=104
sample=Timpani_Soft_Mallet_sustain_FF_G3_RR1.opus

<region>
hivel=77
key=A#2
lovel=52
sample=Timpani_Soft_Mallet_sustain_MF_A#2_RR1.opus

<region>
hivel=77
key=A2
lovel=52
sample=Timpani_Soft_Mallet_sustain_MF_A2_RR1.opus

<region>
hivel=77
key=A3
lovel=52
sample=Timpani_Soft_Mallet_sustain_MF_A3_RR1.opus

<region>
hivel=77
key=B2
lovel=52
offset=1202
sample=Timpani_Soft_Mallet_sustain_MF_B2_RR1.opus

<region>
hivel=77
key=C#2
lovel=52
offset=2727
sample=Timpani_Soft_Mallet_sustain_MF_C#2_RR1.opus

<region>
hivel=77
key=C#3
lovel=52
sample=Timpani_Soft_Mallet_sustain_MF_C#3_RR1.opus

<region>
hivel=77
key=C2
lovel=52
offset=3626
sample=Timpani_Soft_Mallet_sustain_MF_C2_RR1.opus

<region>
hivel=77
key=C3
lovel=52
offset=1513
sample=Timpani_Soft_Mallet_sustain_MF_C3_RR1.opus

<region>
hivel=77
key=D#2
lovel=52
sample=Timpani_Soft_Mallet_sustain_MF_D#2_RR1.opus

<region>
hivel=77
key=D#3
lovel=52
sample=Timpani_Soft_Mallet_sustain_MF_D#3_RR1.opus

<region>
hivel=77
key=D2
lovel=52
sample=Timpani_Soft_Mallet_sustain_MF_D2_RR1.opus

<region>
hivel=77
key=D3
lovel=52
sample=Timpani_Soft_Mallet_sustain_MF_D3_RR1.opus

<region>
hivel=77
key=E2
lovel=52
offset=4640
sample=Timpani_Soft_Mallet_sustain_MF_E2_RR1.opus

<region>
hivel=77
key=E3
lovel=52
sample=Timpani_Soft_Mallet_sustain_MF_E3_RR1.opus

<region>
hivel=77
key=F#2
lovel=52
offset=598
sample=Timpani_Soft_Mallet_sustain_MF_F#2_RR1.opus

<region>
hivel=77
key=F#3
lovel=52
offset=569
sample=Timpani_Soft_Mallet_sustain_MF_F#3_RR1.opus

<region>
hivel=77
key=F2
lovel=52
offset=9223
sample=Timpani_Soft_Mallet_sustain_MF_F2_RR1.opus

<region>
hivel=77
key=F3
lovel=52
offset=2054
sample=Timpani_Soft_Mallet_sustain_MF_F3_RR1.opus

<region>
hivel=77
key=G#2
lovel=52
offset=2789
sample=Timpani_Soft_Mallet_sustain_MF_G#2_RR1.opus

<region>
hivel=77
key=G#3
lovel=52
sample=Timpani_Soft_Mallet_sustain_MF_G#3_RR1.opus

<region>
hivel=77
key=G2
lovel=52
sample=Timpani_Soft_Mallet_sustain_MF_G2_RR1.opus

<region>
hivel=77
key=G3
lovel=52
sample=Timpani_Soft_Mallet_sustain_MF_G3_RR1.opus

<region>
hivel=51
key=A#2
lovel=26
offset=359
sample=Timpani_Soft_Mallet_sustain_MP_A#2_RR1.opus

<region>
hivel=51
key=A2
lovel=26
offset=2232
sample=Timpani_Soft_Mallet_sustain_MP_A2_RR1.opus

<region>
hivel=51
key=A3
lovel=26
sample=Timpani_Soft_Mallet_sustain_MP_A3_RR1.opus

<region>
hivel=51
key=B2
lovel=26
offset=2504
sample=Timpani_Soft_Mallet_sustain_MP_B2_RR1.opus

<region>
hivel=51
key=C#2
lovel=26
offset=2380
sample=Timpani_Soft_Mallet_sustain_MP_C#2_RR1.opus

<region>
hivel=51
key=C#3
lovel=26
offset=1705
sample=Timpani_Soft_Mallet_sustain_MP_C#3_RR1.opus

<region>
hivel=51
key=C2
lovel=26
offset=4317
sample=Timpani_Soft_Mallet_sustain_MP_C2_RR1.opus

<region>
hivel=51
key=C3
lovel=26
offset=1687
sample=Timpani_Soft_Mallet_sustain_MP_C3_RR1.opus

<region>
hivel=51
key=D#2
lovel=26
offset=6530
sample=Timpani_Soft_Mallet_sustain_MP_D#2_RR1.opus

<region>
hivel=51
key=D#3
lovel=26
offset=2910
sample=Timpani_Soft_Mallet_sustain_MP_D#3_RR1.opus

<region>
hivel=51
key=D2
lovel=26
offset=4039
sample=Timpani_Soft_Mallet_sustain_MP_D2_RR1.opus

<region>
hivel=51
key=D3
lovel=26
offset=627
sample=Timpani_Soft_Mallet_sustain_MP_D3_RR1.opus

<region>
hivel=51
key=E2
lovel=26
offset=5079
sample=Timpani_Soft_Mallet_sustain_MP_E2_RR1.opus

<region>
hivel=51
key=E3
lovel=26
offset=233
sample=Timpani_Soft_Mallet_sustain_MP_E3_RR1.opus

<region>
hivel=51
key=F#2
lovel=26
offset=2365
sample=Timpani_Soft_Mallet_sustain_MP_F#2_RR1.opus

<region>
hivel=51
key=F#3
lovel=26
offset=97
sample=Timpani_Soft_Mallet_sustain_MP_F#3_RR1.opus

<region>
hivel=51
key=F2
lovel=26
offset=4266
sample=Timpani_Soft_Mallet_sustain_MP_F2_RR1.opus

<region>
hivel=51
key=F3
lovel=26
sample=Timpani_Soft_Mallet_sustain_MP_F3_RR1.opus

<region>
hivel=51
key=G#2
lovel=26
offset=7259
sample=Timpani_Soft_Mallet_sustain_MP_G#2_RR1.opus

<region>
hivel=51
key=G#3
lovel=26
offset=607
sample=Timpani_Soft_Mallet_sustain_MP_G#3_RR1.opus

<region>
hivel=51
key=G2
lovel=26
offset=2591
sample=Timpani_Soft_Mallet_sustain_MP_G2_RR1.opus

<region>
hivel=51
key=G3
lovel=26
offset=543
sample=Timpani_Soft_Mallet_sustain_MP_G3_RR1.opus

<region>
hivel=25
key=A#2
lovel=0
offset=3668
sample=Timpani_Soft_Mallet_sustain_P_A#2_RR1.opus

<region>
hivel=25
key=A2
lovel=0
offset=3380
sample=Timpani_Soft_Mallet_sustain_P_A2_RR1.opus

<region>
hivel=25
key=A3
lovel=0
offset=5743
sample=Timpani_Soft_Mallet_sustain_P_A3_RR1.opus

<region>
hivel=25
key=B2
lovel=0
offset=1232
sample=Timpani_Soft_Mallet_sustain_P_B2_RR1.opus

<region>
hivel=25
key=C#2
lovel=0
offset=2811
sample=Timpani_Soft_Mallet_sustain_P_C#2_RR1.opus

<region>
hivel=25
key=C#3
lovel=0
offset=4567
sample=Timpani_Soft_Mallet_sustain_P_C#3_RR1.opus

<region>
hivel=25
key=C2
lovel=0
offset=83
sample=Timpani_Soft_Mallet_sustain_P_C2_RR1.opus

<region>
hivel=25
key=C3
lovel=0
offset=2701
sample=Timpani_Soft_Mallet_sustain_P_C3_RR1.opus

<region>
hivel=25
key=D#2
lovel=0
offset=1654
sample=Timpani_Soft_Mallet_sustain_P_D#2_RR1.opus

<region>
hivel=25
key=D#3
lovel=0
offset=4493
sample=Timpani_Soft_Mallet_sustain_P_D#3_RR1.opus

<region>
hivel=25
key=D2
lovel=0
offset=3424
sample=Timpani_Soft_Mallet_sustain_P_D2_RR1.opus

<region>
hivel=25
key=D3
lovel=0
offset=3256
sample=Timpani_Soft_Mallet_sustain_P_D3_RR1.opus

<region>
hivel=25
key=E2
lovel=0
offset=504
sample=Timpani_Soft_Mallet_sustain_P_E2_RR1.opus

<region>
hivel=25
key=E3
lovel=0
offset=4232
sample=Timpani_Soft_Mallet_sustain_P_E3_RR1.opus

<region>
hivel=25
key=F#2
lovel=0
offset=3555
sample=Timpani_Soft_Mallet_sustain_P_F#2_RR1.opus

<region>
hivel=25
key=F#3
lovel=0
offset=4778
sample=Timpani_Soft_Mallet_sustain_P_F#3_RR1.opus

<region>
hivel=25
key=F2
lovel=0
offset=6388
sample=Timpani_Soft_Mallet_sustain_P_F2_RR1.opus

<region>
hivel=25
key=F3
lovel=0
offset=5841
sample=Timpani_Soft_Mallet_sustain_P_F3_RR1.opus

<region>
hivel=25
key=G#2
lovel=0
offset=6823
sample=Timpani_Soft_Mallet_sustain_P_G#2_RR1.opus

<region>
hivel=25
key=G#3
lovel=0
offset=5514
sample=Timpani_Soft_Mallet_sustain_P_G#3_RR1.opus

<region>
hivel=25
key=G2
lovel=0
offset=5689
sample=Timpani_Soft_Mallet_sustain_P_G2_RR1.opus

<region>
hivel=25
key=G3
lovel=0
offset=4939
sample=Timpani_Soft_Mallet_sustain_P_G3_RR1.opus

<group>
group_label=RR2
seq_length=4
seq_position=2

<region>
hivel=103
key=A#2
lovel=78
sample=Timpani_Soft_Mallet_sustain_F_A#2_RR2.opus

<region>
hivel=103
key=A2
lovel=78
sample=Timpani_Soft_Mallet_sustain_F_A2_RR2.opus

<region>
hivel=103
key=A3
lovel=78
sample=Timpani_Soft_Mallet_sustain_F_A3_RR2.opus

<region>
hivel=103
key=B2
lovel=78
sample=Timpani_Soft_Mallet_sustain_F_B2_RR2.opus

<region>
hivel=103
key=C#2
lovel=78
sample=Timpani_Soft_Mallet_sustain_F_C#2_RR2.opus

<region>
hivel=103
key=C#3
lovel=78
sample=Timpani_Soft_Mallet_sustain_F_C#3_RR2.opus

<region>
hivel=103
key=C2
lovel=78
offset=2277
sample=Timpani_Soft_Mallet_sustain_F_C2_RR2.opus

<region>
hivel=103
key=C3
lovel=78
sample=Timpani_Soft_Mallet_sustain_F_C3_RR2.opus

<region>
hivel=103
key=D#2
lovel=78
sample=Timpani_Soft_Mallet_sustain_F_D#2_RR2.opus

<region>
hivel=103
key=D#3
lovel=78
sample=Timpani_Soft_Mallet_sustain_F_D#3_RR2.opus

<region>
hivel=103
key=D2
lovel=78
sample=Timpani_Soft_Mallet_sustain_F_D2_RR2.opus

<region>
hivel=103
key=D3
lovel=78
sample=Timpani_Soft_Mallet_sustain_F_D3_RR2.opus

<region>
hivel=103
key=E2
lovel=78
sample=Timpani_Soft_Mallet_sustain_F_E2_RR2.opus

<region>
hivel=103
key=E3
lovel=78
sample=Timpani_Soft_Mallet_sustain_F_E3_RR2.opus

<region>
hivel=103
key=F#2
lovel=78
sample=Timpani_Soft_Mallet_sustain_F_F#2_RR2.opus

<region>
hivel=103
key=F#3
lovel=78
sample=Timpani_Soft_Mallet_sustain_F_F#3_RR2.opus

<region>
hivel=103
key=F2
lovel=78
offset=2093
sample=Timpani_Soft_Mallet_sustain_F_F2_RR2.opus

<region>
hivel=103
key=F3
lovel=78
sample=Timpani_Soft_Mallet_sustain_F_F3_RR2.opus

<region>
hivel=103
key=G#2
lovel=78
sample=Timpani_Soft_Mallet_sustain_F_G#2_RR2.opus

<region>
hivel=103
key=G#3
lovel=78
sample=Timpani_Soft_Mallet_sustain_F_G#3_RR2.opus

<region>
hivel=103
key=G2
lovel=78
sample=Timpani_Soft_Mallet_sustain_F_G2_RR2.opus

<region>
hivel=103
key=G3
lovel=78
sample=Timpani_Soft_Mallet_sustain_F_G3_RR2.opus

<region>
hivel=127
key=A#2
lovel=104
sample=Timpani_Soft_Mallet_sustain_FF_A#2_RR2.opus

<region>
hivel=127
key=A2
lovel=104
sample=Timpani_Soft_Mallet_sustain_FF_A2_RR2.opus

<region>
hivel=127
key=A3
lovel=104
sample=Timpani_Soft_Mallet_sustain_FF_A3_RR2.opus

<region>
hivel=127
key=B2
lovel=104
sample=Timpani_Soft_Mallet_sustain_FF_B2_RR2.opus

<region>
hivel=127
key=C#2
lovel=104
sample=Timpani_Soft_Mallet_sustain_FF_C#2_RR2.opus

<region>
hivel=127
key=C#3
lovel=104
sample=Timpani_Soft_Mallet_sustain_FF_C#3_RR2.opus

<region>
hivel=127
key=C2
lovel=104
sample=Timpani_Soft_Mallet_sustain_FF_C2_RR2.opus

<region>
hivel=127
key=C3
lovel=104
sample=Timpani_Soft_Mallet_sustain_FF_C3_RR2.opus

<region>
hivel=127
key=D#2
lovel=104
sample=Timpani_Soft_Mallet_sustain_FF_D#2_RR2.opus

<region>
hivel=127
key=D2
lovel=104
sample=Timpani_Soft_Mallet_sustain_FF_D2_RR2.opus

<region>
hivel=127
key=D3
lovel=104
sample=Timpani_Soft_Mallet_sustain_FF_D3_RR2.opus

<region>
hivel=127
key=E2
lovel=104
sample=Timpani_Soft_Mallet_sustain_FF_E2_RR2.opus

<region>
hivel=127
key=E3
lovel=104
sample=Timpani_Soft_Mallet_sustain_FF_E3_RR2.opus

<region>
hivel=127
key=F#2
lovel=104
sample=Timpani_Soft_Mallet_sustain_FF_F#2_RR2.opus

<region>
hivel=127
key=F#3
lovel=104
sample=Timpani_Soft_Mallet_sustain_FF_F#3_RR2.opus

<region>
hivel=127
key=F2
lovel=104
sample=Timpani_Soft_Mallet_sustain_FF_F2_RR2.opus

<region>
hivel=127
key=F3
lovel=104
sample=Timpani_Soft_Mallet_sustain_FF_F3_RR2.opus

<region>
hivel=127
key=G#2
lovel=104
sample=Timpani_Soft_Mallet_sustain_FF_G#2_RR2.opus

<region>
hivel=127
key=G#3
lovel=104
sample=Timpani_Soft_Mallet_sustain_FF_G#3_RR2.opus

<region>
hivel=127
key=G2
lovel=104
sample=Timpani_Soft_Mallet_sustain_FF_G2_RR2.opus

<region>
hivel=127
key=G3
lovel=104
sample=Timpani_Soft_Mallet_sustain_FF_G3_RR2.opus

<region>
hivel=77
key=A#2
lovel=52
sample=Timpani_Soft_Mallet_sustain_MF_A#2_RR2.opus

<region>
hivel=77
key=A2
lovel=52
sample=Timpani_Soft_Mallet_sustain_MF_A2_RR2.opus

<region>
hivel=77
key=A3
lovel=52
sample=Timpani_Soft_Mallet_sustain_MF_A3_RR2.opus

<region>
hivel=77
key=B2
lovel=52
offset=1906
sample=Timpani_Soft_Mallet_sustain_MF_B2_RR2.opus

<region>
hivel=77
key=C#2
lovel=52
sample=Timpani_Soft_Mallet_sustain_MF_C#2_RR2.opus

<region>
hivel=77
key=C#3
lovel=52
sample=Timpani_Soft_Mallet_sustain_MF_C#3_RR2.opus

<region>
hivel=77
key=C2
lovel=52
offset=98801
sample=Timpani_Soft_Mallet_sustain_MF_C2_RR2.opus

<region>
hivel=77
key=C3
lovel=52
sample=Timpani_Soft_Mallet_sustain_MF_C3_RR2.opus

<region>
hivel=77
key=D#2
lovel=52
sample=Timpani_Soft_Mallet_sustain_MF_D#2_RR2.opus

<region>
hivel=77
key=D#3
lovel=52
sample=Timpani_Soft_Mallet_sustain_MF_D#3_RR2.opus

<region>
hivel=77
key=D2
lovel=52
sample=Timpani_Soft_Mallet_sustain_MF_D2_RR2.opus

<region>
hivel=77
key=D3
lovel=52
sample=Timpani_Soft_Mallet_sustain_MF_D3_RR2.opus

<region>
hivel=77
key=E2
lovel=52
offset=6599
sample=Timpani_Soft_Mallet_sustain_MF_E2_RR2.opus

<region>
hivel=77
key=E3
lovel=52
sample=Timpani_Soft_Mallet_sustain_MF_E3_RR2.opus

<region>
hivel=77
key=F#2
lovel=52
offset=3032
sample=Timpani_Soft_Mallet_sustain_MF_F#2_RR2.opus

<region>
hivel=77
key=F#3
lovel=52
sample=Timpani_Soft_Mallet_sustain_MF_F#3_RR2.opus

<region>
hivel=77
key=F2
lovel=52
offset=5035
sample=Timpani_Soft_Mallet_sustain_MF_F2_RR2.opus

<region>
hivel=77
key=F3
lovel=52
sample=Timpani_Soft_Mallet_sustain_MF_F3_RR2.opus

<region>
hivel=77
key=G#2
lovel=52
offset=1006
sample=Timpani_Soft_Mallet_sustain_MF_G#2_RR2.opus

<region>
hivel=77
key=G#3
lovel=52
sample=Timpani_Soft_Mallet_sustain_MF_G#3_RR2.opus

<region>
hivel=77
key=G2
lovel=52
offset=3071
sample=Timpani_Soft_Mallet_sustain_MF_G2_RR2.opus

<region>
hivel=77
key=G3
lovel=52
sample=Timpani_Soft_Mallet_sustain_MF_G3_RR2.opus

<region>
hivel=51
key=A#2
lovel=26
offset=1408
sample=Timpani_Soft_Mallet_sustain_MP_A#2_RR2.opus

<region>
hivel=51
key=A2
lovel=26
offset=1111
sample=Timpani_Soft_Mallet_sustain_MP_A2_RR2.opus

<region>
hivel=51
key=A3
lovel=26
sample=Timpani_Soft_Mallet_sustain_MP_A3_RR2.opus

<region>
hivel=51
key=B2
lovel=26
sample=Timpani_Soft_Mallet_sustain_MP_B2_RR2.opus

<region>
hivel=51
key=C#2
lovel=26
offset=4053
sample=Timpani_Soft_Mallet_sustain_MP_C#2_RR2.opus

<region>
hivel=51
key=C#3
lovel=26
offset=565
sample=Timpani_Soft_Mallet_sustain_MP_C#3_RR2.opus

<region>
hivel=51
key=C2
lovel=26
offset=18226
sample=Timpani_Soft_Mallet_sustain_MP_C2_RR2.opus

<region>
hivel=51
key=C3
lovel=26
sample=Timpani_Soft_Mallet_sustain_MP_C3_RR2.opus

<region>
hivel=51
key=D#2
lovel=26
offset=6327
sample=Timpani_Soft_Mallet_sustain_MP_D#2_RR2.opus

<region>
hivel=51
key=D#3
lovel=26
sample=Timpani_Soft_Mallet_sustain_MP_D#3_RR2.opus

<region>
hivel=51
key=D2
lovel=26
offset=3797
sample=Timpani_Soft_Mallet_sustain_MP_D2_RR2.opus

<region>
hivel=51
key=D3
lovel=26
sample=Timpani_Soft_Mallet_sustain_MP_D3_RR2.opus

<region>
hivel=51
key=E2
lovel=26
offset=5463
sample=Timpani_Soft_Mallet_sustain_MP_E2_RR2.opus

<region>
hivel=51
key=E3
lovel=26
offset=3560
sample=Timpani_Soft_Mallet_sustain_MP_E3_RR2.opus

<region>
hivel=51
key=F#2
lovel=26
offset=1997
sample=Timpani_Soft_Mallet_sustain_MP_F#2_RR2.opus

<region>
hivel=51
key=F#3
lovel=26
offset=458
sample=Timpani_Soft_Mallet_sustain_MP_F#3_RR2.opus

<region>
hivel=51
key=F2
lovel=26
offset=3179
sample=Timpani_Soft_Mallet_sustain_MP_F2_RR2.opus

<region>
hivel=51
key=F3
lovel=26
offset=900
sample=Timpani_Soft_Mallet_sustain_MP_F3_RR2.opus

<region>
hivel=51
key=G#2
lovel=26
offset=4243
sample=Timpani_Soft_Mallet_sustain_MP_G#2_RR2.opus

<region>
hivel=51
key=G#3
lovel=26
sample=Timpani_Soft_Mallet_sustain_MP_G#3_RR2.opus

<region>
hivel=51
key=G2
lovel=26
offset=4050
sample=Timpani_Soft_Mallet_sustain_MP_G2_RR2.opus

<region>
hivel=51
key=G3
lovel=26
offset=1460
sample=Timpani_Soft_Mallet_sustain_MP_G3_RR2.opus

<region>
hivel=25
key=A#2
lovel=0
offset=2399
sample=Timpani_Soft_Mallet_sustain_P_A#2_RR2.opus

<region>
hivel=25
key=A2
lovel=0
offset=3688
sample=Timpani_Soft_Mallet_sustain_P_A2_RR2.opus

<region>
hivel=25
key=A3
lovel=0
offset=8071
sample=Timpani_Soft_Mallet_sustain_P_A3_RR2.opus

<region>
hivel=25
key=B2
lovel=0
offset=2052
sample=Timpani_Soft_Mallet_sustain_P_B2_RR2.opus

<region>
hivel=25
key=C#2
lovel=0
offset=4191
sample=Timpani_Soft_Mallet_sustain_P_C#2_RR2.opus

<region>
hivel=25
key=C#3
lovel=0
offset=4270
sample=Timpani_Soft_Mallet_sustain_P_C#3_RR2.opus

<region>
hivel=25
key=C2
lovel=0
offset=5812
sample=Timpani_Soft_Mallet_sustain_P_C2_RR2.opus

<region>
hivel=25
key=C3
lovel=0
offset=1407
sample=Timpani_Soft_Mallet_sustain_P_C3_RR2.opus

<region>
hivel=25
key=D#2
lovel=0
offset=2979
sample=Timpani_Soft_Mallet_sustain_P_D#2_RR2.opus

<region>
hivel=25
key=D#3
lovel=0
offset=7017
sample=Timpani_Soft_Mallet_sustain_P_D#3_RR2.opus

<region>
hivel=25
key=D2
lovel=0
offset=6346
sample=Timpani_Soft_Mallet_sustain_P_D2_RR2.opus

<region>
hivel=25
key=D3
lovel=0
offset=1492
sample=Timpani_Soft_Mallet_sustain_P_D3_RR2.opus

<region>
hivel=25
key=E2
lovel=0
offset=5270
sample=Timpani_Soft_Mallet_sustain_P_E2_RR2.opus

<region>
hivel=25
key=E3
lovel=0
offset=4986
sample=Timpani_Soft_Mallet_sustain_P_E3_RR2.opus

<region>
hivel=25
key=F#2
lovel=0
offset=3734
sample=Timpani_Soft_Mallet_sustain_P_F#2_RR2.opus

<region>
hivel=25
key=F#3
lovel=0
offset=5086
sample=Timpani_Soft_Mallet_sustain_P_F#3_RR2.opus

<region>
hivel=25
key=F2
lovel=0
offset=5514
sample=Timpani_Soft_Mallet_sustain_P_F2_RR2.opus

<region>
hivel=25
key=F3
lovel=0
offset=4592
sample=Timpani_Soft_Mallet_sustain_P_F3_RR2.opus

<region>
hivel=25
key=G#2
lovel=0
offset=2180
sample=Timpani_Soft_Mallet_sustain_P_G#2_RR2.opus

<region>
hivel=25
key=G#3
lovel=0
offset=4039
sample=Timpani_Soft_Mallet_sustain_P_G#3_RR2.opus

<region>
hivel=25
key=G2
lovel=0
offset=4900
sample=Timpani_Soft_Mallet_sustain_P_G2_RR2.opus

<region>
hivel=25
key=G3
lovel=0
offset=4714
sample=Timpani_Soft_Mallet_sustain_P_G3_RR2.opus

<region>
hivel=127
key=D#3
lovel=104
sample=Timpani_Soft_Mallet_sustain_FF_D#3_RR4.opus

<group>
group_label=RR3
seq_length=4
seq_position=3

<region>
hivel=103
key=A#2
lovel=78
sample=Timpani_Soft_Mallet_sustain_F_A#2_RR3.opus

<region>
hivel=103
key=A2
lovel=78
sample=Timpani_Soft_Mallet_sustain_F_A2_RR3.opus

<region>
hivel=103
key=A3
lovel=78
sample=Timpani_Soft_Mallet_sustain_F_A3_RR3.opus

<region>
hivel=103
key=B2
lovel=78
sample=Timpani_Soft_Mallet_sustain_F_B2_RR3.opus

<region>
hivel=103
key=C#2
lovel=78
sample=Timpani_Soft_Mallet_sustain_F_C#2_RR3.opus

<region>
hivel=103
key=C#3
lovel=78
sample=Timpani_Soft_Mallet_sustain_F_C#3_RR3.opus

<region>
hivel=103
key=C2
lovel=78
offset=2957
sample=Timpani_Soft_Mallet_sustain_F_C2_RR3.opus

<region>
hivel=103
key=C3
lovel=78
sample=Timpani_Soft_Mallet_sustain_F_C3_RR3.opus

<region>
hivel=103
key=D#2
lovel=78
sample=Timpani_Soft_Mallet_sustain_F_D#2_RR3.opus

<region>
hivel=103
key=D#3
lovel=78
sample=Timpani_Soft_Mallet_sustain_F_D#3_RR3.opus

<region>
hivel=103
key=D2
lovel=78
sample=Timpani_Soft_Mallet_sustain_F_D2_RR3.opus

<region>
hivel=103
key=D3
lovel=78
sample=Timpani_Soft_Mallet_sustain_F_D3_RR3.opus

<region>
hivel=103
key=E2
lovel=78
sample=Timpani_Soft_Mallet_sustain_F_E2_RR3.opus

<region>
hivel=103
key=E3
lovel=78
sample=Timpani_Soft_Mallet_sustain_F_E3_RR3.opus

<region>
hivel=103
key=F#2
lovel=78
offset=22803
sample=Timpani_Soft_Mallet_sustain_F_F#2_RR3.opus

<region>
hivel=103
key=F#3
lovel=78
sample=Timpani_Soft_Mallet_sustain_F_F#3_RR3.opus

<region>
hivel=103
key=F2
lovel=78
offset=95814
sample=Timpani_Soft_Mallet_sustain_F_F2_RR3.opus

<region>
hivel=103
key=F3
lovel=78
sample=Timpani_Soft_Mallet_sustain_F_F3_RR3.opus

<region>
hivel=103
key=G#2
lovel=78
sample=Timpani_Soft_Mallet_sustain_F_G#2_RR3.opus

<region>
hivel=103
key=G#3
lovel=78
sample=Timpani_Soft_Mallet_sustain_F_G#3_RR3.opus

<region>
hivel=103
key=G2
lovel=78
sample=Timpani_Soft_Mallet_sustain_F_G2_RR3.opus

<region>
hivel=103
key=G3
lovel=78
sample=Timpani_Soft_Mallet_sustain_F_G3_RR3.opus

<region>
hivel=127
key=A#2
lovel=104
sample=Timpani_Soft_Mallet_sustain_FF_A#2_RR3.opus

<region>
hivel=127
key=A2
lovel=104
sample=Timpani_Soft_Mallet_sustain_FF_A2_RR3.opus

<region>
hivel=127
key=A3
lovel=104
sample=Timpani_Soft_Mallet_sustain_FF_A3_RR3.opus

<region>
hivel=127
key=B2
lovel=104
sample=Timpani_Soft_Mallet_sustain_FF_B2_RR3.opus

<region>
hivel=127
key=C#2
lovel=104
sample=Timpani_Soft_Mallet_sustain_FF_C#2_RR3.opus

<region>
hivel=127
key=C#3
lovel=104
sample=Timpani_Soft_Mallet_sustain_FF_C#3_RR3.opus

<region>
hivel=127
key=C2
lovel=104
sample=Timpani_Soft_Mallet_sustain_FF_C2_RR3.opus

<region>
hivel=127
key=C3
lovel=104
sample=Timpani_Soft_Mallet_sustain_FF_C3_RR3.opus

<region>
hivel=127
key=D#2
lovel=104
sample=Timpani_Soft_Mallet_sustain_FF_D#2_RR3.opus

<region>
hivel=127
key=D#3
lovel=104
sample=Timpani_Soft_Mallet_sustain_FF_D#3_RR3.opus

<region>
hivel=127
key=D2
lovel=104
sample=Timpani_Soft_Mallet_sustain_FF_D2_RR3.opus

<region>
hivel=127
key=D3
lovel=104
sample=Timpani_Soft_Mallet_sustain_FF_D3_RR3.opus

<region>
hivel=127
key=E2
lovel=104
sample=Timpani_Soft_Mallet_sustain_FF_E2_RR3.opus

<region>
hivel=127
key=E3
lovel=104
sample=Timpani_Soft_Mallet_sustain_FF_E3_RR3.opus

<region>
hivel=127
key=F#2
lovel=104
sample=Timpani_Soft_Mallet_sustain_FF_F#2_RR3.opus

<region>
hivel=127
key=F#3
lovel=104
sample=Timpani_Soft_Mallet_sustain_FF_F#3_RR3.opus

<region>
hivel=127
key=F2
lovel=104
sample=Timpani_Soft_Mallet_sustain_FF_F2_RR3.opus

<region>
hivel=127
key=F3
lovel=104
sample=Timpani_Soft_Mallet_sustain_FF_F3_RR3.opus

<region>
hivel=127
key=G#2
lovel=104
sample=Timpani_Soft_Mallet_sustain_FF_G#2_RR3.opus

<region>
hivel=127
key=G#3
lovel=104
sample=Timpani_Soft_Mallet_sustain_FF_G#3_RR3.opus

<region>
hivel=127
key=G2
lovel=104
sample=Timpani_Soft_Mallet_sustain_FF_G2_RR3.opus

<region>
hivel=127
key=G3
lovel=104
sample=Timpani_Soft_Mallet_sustain_FF_G3_RR3.opus

<region>
hivel=77
key=A#2
lovel=52
sample=Timpani_Soft_Mallet_sustain_MF_A#2_RR3.opus

<region>
hivel=77
key=A2
lovel=52
sample=Timpani_Soft_Mallet_sustain_MF_A2_RR3.opus

<region>
hivel=77
key=A3
lovel=52
sample=Timpani_Soft_Mallet_sustain_MF_A3_RR3.opus

<region>
hivel=77
key=B2
lovel=52
sample=Timpani_Soft_Mallet_sustain_MF_B2_RR3.opus

<region>
hivel=77
key=C#2
lovel=52
sample=Timpani_Soft_Mallet_sustain_MF_C#2_RR3.opus

<region>
hivel=77
key=C#3
lovel=52
sample=Timpani_Soft_Mallet_sustain_MF_C#3_RR3.opus

<region>
hivel=77
key=C2
lovel=52
offset=3299
sample=Timpani_Soft_Mallet_sustain_MF_C2_RR3.opus

<region>
hivel=77
key=C3
lovel=52
sample=Timpani_Soft_Mallet_sustain_MF_C3_RR3.opus

<region>
hivel=77
key=D#2
lovel=52
sample=Timpani_Soft_Mallet_sustain_MF_D#2_RR3.opus

<region>
hivel=77
key=D#3
lovel=52
sample=Timpani_Soft_Mallet_sustain_MF_D#3_RR3.opus

<region>
hivel=77
key=D2
lovel=52
offset=7768
sample=Timpani_Soft_Mallet_sustain_MF_D2_RR3.opus

<region>
hivel=77
key=D3
lovel=52
sample=Timpani_Soft_Mallet_sustain_MF_D3_RR3.opus

<region>
hivel=77
key=E2
lovel=52
offset=4452
sample=Timpani_Soft_Mallet_sustain_MF_E2_RR3.opus

<region>
hivel=77
key=E3
lovel=52
sample=Timpani_Soft_Mallet_sustain_MF_E3_RR3.opus

<region>
hivel=77
key=F#2
lovel=52
offset=3959
sample=Timpani_Soft_Mallet_sustain_MF_F#2_RR3.opus

<region>
hivel=77
key=F#3
lovel=52
sample=Timpani_Soft_Mallet_sustain_MF_F#3_RR3.opus

<region>
hivel=77
key=F2
lovel=52
offset=104482
sample=Timpani_Soft_Mallet_sustain_MF_F2_RR3.opus

<region>
hivel=77
key=F3
lovel=52
sample=Timpani_Soft_Mallet_sustain_MF_F3_RR3.opus

<region>
hivel=77
key=G#2
lovel=52
offset=1998
sample=Timpani_Soft_Mallet_sustain_MF_G#2_RR3.opus

<region>
hivel=77
key=G#3
lovel=52
sample=Timpani_Soft_Mallet_sustain_MF_G#3_RR3.opus

<region>
hivel=77
key=G2
lovel=52
offset=6139
sample=Timpani_Soft_Mallet_sustain_MF_G2_RR3.opus

<region>
hivel=77
key=G3
lovel=52
sample=Timpani_Soft_Mallet_sustain_MF_G3_RR3.opus

<region>
hivel=51
key=A#2
lovel=26
sample=Timpani_Soft_Mallet_sustain_MP_A#2_RR3.opus

<region>
hivel=51
key=A2
lovel=26
offset=1538
sample=Timpani_Soft_Mallet_sustain_MP_A2_RR3.opus

<region>
hivel=51
key=A3
lovel=26
sample=Timpani_Soft_Mallet_sustain_MP_A3_RR3.opus

<region>
hivel=51
key=B2
lovel=26
offset=708
sample=Timpani_Soft_Mallet_sustain_MP_B2_RR3.opus

<region>
hivel=51
key=C#2
lovel=26
offset=2380
sample=Timpani_Soft_Mallet_sustain_MP_C#2_RR3.opus

<region>
hivel=51
key=C#3
lovel=26
offset=565
sample=Timpani_Soft_Mallet_sustain_MP_C#3_RR3.opus

<region>
hivel=51
key=C2
lovel=26
offset=6442
sample=Timpani_Soft_Mallet_sustain_MP_C2_RR3.opus

<region>
hivel=51
key=C3
lovel=26
sample=Timpani_Soft_Mallet_sustain_MP_C3_RR3.opus

<region>
hivel=51
key=D#2
lovel=26
offset=6327
sample=Timpani_Soft_Mallet_sustain_MP_D#2_RR3.opus

<region>
hivel=51
key=D#3
lovel=26
offset=89
sample=Timpani_Soft_Mallet_sustain_MP_D#3_RR3.opus

<region>
hivel=51
key=D2
lovel=26
offset=3439
sample=Timpani_Soft_Mallet_sustain_MP_D2_RR3.opus

<region>
hivel=51
key=D3
lovel=26
sample=Timpani_Soft_Mallet_sustain_MP_D3_RR3.opus

<region>
hivel=51
key=E2
lovel=26
offset=5463
sample=Timpani_Soft_Mallet_sustain_MP_E2_RR3.opus

<region>
hivel=51
key=E3
lovel=26
offset=466
sample=Timpani_Soft_Mallet_sustain_MP_E3_RR3.opus

<region>
hivel=51
key=F#2
lovel=26
offset=4014
sample=Timpani_Soft_Mallet_sustain_MP_F#2_RR3.opus

<region>
hivel=51
key=F#3
lovel=26
offset=2570
sample=Timpani_Soft_Mallet_sustain_MP_F#3_RR3.opus

<region>
hivel=51
key=F2
lovel=26
offset=18566
sample=Timpani_Soft_Mallet_sustain_MP_F2_RR3.opus

<region>
hivel=51
key=F3
lovel=26
offset=1860
sample=Timpani_Soft_Mallet_sustain_MP_F3_RR3.opus

<region>
hivel=51
key=G#2
lovel=26
offset=7259
sample=Timpani_Soft_Mallet_sustain_MP_G#2_RR3.opus

<region>
hivel=51
key=G#3
lovel=26
offset=747
sample=Timpani_Soft_Mallet_sustain_MP_G#3_RR3.opus

<region>
hivel=51
key=G2
lovel=26
offset=1725
sample=Timpani_Soft_Mallet_sustain_MP_G2_RR3.opus

<region>
hivel=51
key=G3
lovel=26
offset=1345
sample=Timpani_Soft_Mallet_sustain_MP_G3_RR3.opus

<region>
hivel=25
key=A#2
lovel=0
offset=2330
sample=Timpani_Soft_Mallet_sustain_P_A#2_RR3.opus

<region>
hivel=25
key=A2
lovel=0
offset=3593
sample=Timpani_Soft_Mallet_sustain_P_A2_RR3.opus

<region>
hivel=25
key=A3
lovel=0
offset=5351
sample=Timpani_Soft_Mallet_sustain_P_A3_RR3.opus

<region>
hivel=25
key=B2
lovel=0
sample=Timpani_Soft_Mallet_sustain_P_B2_RR3.opus

<region>
hivel=25
key=C#2
lovel=0
offset=3350
sample=Timpani_Soft_Mallet_sustain_P_C#2_RR3.opus

<region>
hivel=25
key=C#3
lovel=0
sample=Timpani_Soft_Mallet_sustain_P_C#3_RR3.opus

<region>
hivel=25
key=C2
lovel=0
offset=2526
sample=Timpani_Soft_Mallet_sustain_P_C2_RR3.opus

<region>
hivel=25
key=C3
lovel=0
offset=1820
sample=Timpani_Soft_Mallet_sustain_P_C3_RR3.opus

<region>
hivel=25
key=D#2
lovel=0
offset=2746
sample=Timpani_Soft_Mallet_sustain_P_D#2_RR3.opus

<region>
hivel=25
key=D#3
lovel=0
offset=7997
sample=Timpani_Soft_Mallet_sustain_P_D#3_RR3.opus

<region>
hivel=25
key=D2
lovel=0
offset=4907
sample=Timpani_Soft_Mallet_sustain_P_D2_RR3.opus

<region>
hivel=25
key=D3
lovel=0
offset=2188
sample=Timpani_Soft_Mallet_sustain_P_D3_RR3.opus

<region>
hivel=25
key=E2
lovel=0
offset=6687
sample=Timpani_Soft_Mallet_sustain_P_E2_RR3.opus

<region>
hivel=25
key=E3
lovel=0
offset=5751
sample=Timpani_Soft_Mallet_sustain_P_E3_RR3.opus

<region>
hivel=25
key=F#2
lovel=0
offset=5488
sample=Timpani_Soft_Mallet_sustain_P_F#2_RR3.opus

<region>
hivel=25
key=F#3
lovel=0
offset=5086
sample=Timpani_Soft_Mallet_sustain_P_F#3_RR3.opus

<region>
hivel=25
key=F2
lovel=0
offset=103390
sample=Timpani_Soft_Mallet_sustain_P_F2_RR3.opus

<region>
hivel=25
key=F3
lovel=0
offset=5750
sample=Timpani_Soft_Mallet_sustain_P_F3_RR3.opus

<region>
hivel=25
key=G#2
lovel=0
offset=5893
sample=Timpani_Soft_Mallet_sustain_P_G#2_RR3.opus

<region>
hivel=25
key=G#3
lovel=0
offset=5505
sample=Timpani_Soft_Mallet_sustain_P_G#3_RR3.opus

<region>
hivel=25
key=G2
lovel=0
offset=5560
sample=Timpani_Soft_Mallet_sustain_P_G2_RR3.opus

<region>
hivel=25
key=G3
lovel=0
offset=7541
sample=Timpani_Soft_Mallet_sustain_P_G3_RR3.opus

<group>
group_label=RR4
seq_length=4
seq_position=4

<region>
hivel=103
key=A#2
lovel=78
sample=Timpani_Soft_Mallet_sustain_F_A#2_RR4.opus

<region>
hivel=103
key=A2
lovel=78
sample=Timpani_Soft_Mallet_sustain_F_A2_RR4.opus

<region>
hivel=103
key=A3
lovel=78
sample=Timpani_Soft_Mallet_sustain_F_A3_RR4.opus

<region>
hivel=103
key=B2
lovel=78
sample=Timpani_Soft_Mallet_sustain_F_B2_RR4.opus

<region>
hivel=103
key=C#2
lovel=78
sample=Timpani_Soft_Mallet_sustain_F_C#2_RR4.opus

<region>
hivel=103
key=C#3
lovel=78
sample=Timpani_Soft_Mallet_sustain_F_C#3_RR4.opus

<region>
hivel=103
key=C2
lovel=78
offset=23266
sample=Timpani_Soft_Mallet_sustain_F_C2_RR4.opus

<region>
hivel=103
key=C3
lovel=78
sample=Timpani_Soft_Mallet_sustain_F_C3_RR4.opus

<region>
hivel=103
key=D#2
lovel=78
sample=Timpani_Soft_Mallet_sustain_F_D#2_RR4.opus

<region>
hivel=103
key=D#3
lovel=78
sample=Timpani_Soft_Mallet_sustain_F_D#3_RR4.opus

<region>
hivel=103
key=D2
lovel=78
sample=Timpani_Soft_Mallet_sustain_F_D2_RR4.opus

<region>
hivel=103
key=D3
lovel=78
sample=Timpani_Soft_Mallet_sustain_F_D3_RR4.opus

<region>
hivel=103
key=E2
lovel=78
sample=Timpani_Soft_Mallet_sustain_F_E2_RR4.opus

<region>
hivel=103
key=E3
lovel=78
sample=Timpani_Soft_Mallet_sustain_F_E3_RR4.opus

<region>
hivel=103
key=F#2
lovel=78
sample=Timpani_Soft_Mallet_sustain_F_F#2_RR4.opus

<region>
hivel=103
key=F#3
lovel=78
sample=Timpani_Soft_Mallet_sustain_F_F#3_RR4.opus

<region>
hivel=103
key=F2
lovel=78
offset=75640
sample=Timpani_Soft_Mallet_sustain_F_F2_RR4.opus

<region>
hivel=103
key=F3
lovel=78
sample=Timpani_Soft_Mallet_sustain_F_F3_RR4.opus

<region>
hivel=103
key=G#2
lovel=78
sample=Timpani_Soft_Mallet_sustain_F_G#2_RR4.opus

<region>
hivel=103
key=G#3
lovel=78
sample=Timpani_Soft_Mallet_sustain_F_G#3_RR4.opus

<region>
hivel=103
key=G2
lovel=78
sample=Timpani_Soft_Mallet_sustain_F_G2_RR4.opus

<region>
hivel=103
key=G3
lovel=78
sample=Timpani_Soft_Mallet_sustain_F_G3_RR4.opus

<region>
hivel=127
key=A#2
lovel=104
sample=Timpani_Soft_Mallet_sustain_FF_A#2_RR4.opus

<region>
hivel=127
key=A2
lovel=104
sample=Timpani_Soft_Mallet_sustain_FF_A2_RR4.opus

<region>
hivel=127
key=A3
lovel=104
sample=Timpani_Soft_Mallet_sustain_FF_A3_RR4.opus

<region>
hivel=127
key=B2
lovel=104
sample=Timpani_Soft_Mallet_sustain_FF_B2_RR4.opus

<region>
hivel=127
key=C#2
lovel=104
sample=Timpani_Soft_Mallet_sustain_FF_C#2_RR4.opus

<region>
hivel=127
key=C#3
lovel=104
sample=Timpani_Soft_Mallet_sustain_FF_C#3_RR4.opus

<region>
hivel=127
key=C2
lovel=104
sample=Timpani_Soft_Mallet_sustain_FF_C2_RR4.opus

<region>
hivel=127
key=C3
lovel=104
sample=Timpani_Soft_Mallet_sustain_FF_C3_RR4.opus

<region>
hivel=127
key=D#2
lovel=104
sample=Timpani_Soft_Mallet_sustain_FF_D#2_RR4.opus

<region>
hivel=127
key=D#3
lovel=104
sample=Timpani_Soft_Mallet_sustain_FF_D#3_RR4.opus

<region>
hivel=127
key=D2
lovel=104
sample=Timpani_Soft_Mallet_sustain_FF_D2_RR4.opus

<region>
hivel=127
key=D3
lovel=104
sample=Timpani_Soft_Mallet_sustain_FF_D3_RR4.opus

<region>
hivel=127
key=E2
lovel=104
sample=Timpani_Soft_Mallet_sustain_FF_E2_RR4.opus

<region>
hivel=127
key=E3
lovel=104
sample=Timpani_Soft_Mallet_sustain_FF_E3_RR4.opus

<region>
hivel=127
key=F#2
lovel=104
sample=Timpani_Soft_Mallet_sustain_FF_F#2_RR4.opus

<region>
hivel=127
key=F#3
lovel=104
sample=Timpani_Soft_Mallet_sustain_FF_F#3_RR4.opus

<region>
hivel=127
key=F2
lovel=104
sample=Timpani_Soft_Mallet_sustain_FF_F2_RR4.opus

<region>
hivel=127
key=F3
lovel=104
sample=Timpani_Soft_Mallet_sustain_FF_F3_RR4.opus

<region>
hivel=127
key=G#2
lovel=104
sample=Timpani_Soft_Mallet_sustain_FF_G#2_RR4.opus

<region>
hivel=127
key=G#3
lovel=104
sample=Timpani_Soft_Mallet_sustain_FF_G#3_RR4.opus

<region>
hivel=127
key=G2
lovel=104
sample=Timpani_Soft_Mallet_sustain_FF_G2_RR4.opus

<region>
hivel=127
key=G3
lovel=104
sample=Timpani_Soft_Mallet_sustain_FF_G3_RR4.opus

<region>
hivel=77
key=A#2
lovel=52
sample=Timpani_Soft_Mallet_sustain_MF_A#2_RR4.opus

<region>
hivel=77
key=A2
lovel=52
sample=Timpani_Soft_Mallet_sustain_MF_A2_RR4.opus

<region>
hivel=77
key=A3
lovel=52
sample=Timpani_Soft_Mallet_sustain_MF_A3_RR4.opus

<region>
hivel=77
key=B2
lovel=52
offset=2763
sample=Timpani_Soft_Mallet_sustain_MF_B2_RR4.opus

<region>
hivel=77
key=C#2
lovel=52
sample=Timpani_Soft_Mallet_sustain_MF_C#2_RR4.opus

<region>
hivel=77
key=C#3
lovel=52
sample=Timpani_Soft_Mallet_sustain_MF_C#3_RR4.opus

<region>
hivel=77
key=C2
lovel=52
offset=18324
sample=Timpani_Soft_Mallet_sustain_MF_C2_RR4.opus

<region>
hivel=77
key=C3
lovel=52
sample=Timpani_Soft_Mallet_sustain_MF_C3_RR4.opus

<region>
hivel=77
key=D#2
lovel=52
offset=3701
sample=Timpani_Soft_Mallet_sustain_MF_D#2_RR4.opus

<region>
hivel=77
key=D#3
lovel=52
sample=Timpani_Soft_Mallet_sustain_MF_D#3_RR4.opus

<region>
hivel=77
key=D2
lovel=52
offset=5538
sample=Timpani_Soft_Mallet_sustain_MF_D2_RR4.opus

<region>
hivel=77
key=D3
lovel=52
offset=3006
sample=Timpani_Soft_Mallet_sustain_MF_D3_RR4.opus

<region>
hivel=77
key=E2
lovel=52
offset=4389
sample=Timpani_Soft_Mallet_sustain_MF_E2_RR4.opus

<region>
hivel=77
key=E3
lovel=52
sample=Timpani_Soft_Mallet_sustain_MF_E3_RR4.opus

<region>
hivel=77
key=F#2
lovel=52
offset=2639
sample=Timpani_Soft_Mallet_sustain_MF_F#2_RR4.opus

<region>
hivel=77
key=F#3
lovel=52
sample=Timpani_Soft_Mallet_sustain_MF_F#3_RR4.opus

<region>
hivel=77
key=F2
lovel=52
offset=101600
sample=Timpani_Soft_Mallet_sustain_MF_F2_RR4.opus

<region>
hivel=77
key=F3
lovel=52
sample=Timpani_Soft_Mallet_sustain_MF_F3_RR4.opus

<region>
hivel=77
key=G#2
lovel=52
offset=1324
sample=Timpani_Soft_Mallet_sustain_MF_G#2_RR4.opus

<region>
hivel=77
key=G#3
lovel=52
sample=Timpani_Soft_Mallet_sustain_MF_G#3_RR4.opus

<region>
hivel=77
key=G2
lovel=52
sample=Timpani_Soft_Mallet_sustain_MF_G2_RR4.opus

<region>
hivel=77
key=G3
lovel=52
sample=Timpani_Soft_Mallet_sustain_MF_G3_RR4.opus

<region>
hivel=51
key=A#2
lovel=26
offset=3293
sample=Timpani_Soft_Mallet_sustain_MP_A#2_RR4.opus

<region>
hivel=51
key=A2
lovel=26
offset=1799
sample=Timpani_Soft_Mallet_sustain_MP_A2_RR4.opus

<region>
hivel=51
key=A3
lovel=26
sample=Timpani_Soft_Mallet_sustain_MP_A3_RR4.opus

<region>
hivel=51
key=B2
lovel=26
sample=Timpani_Soft_Mallet_sustain_MP_B2_RR4.opus

<region>
hivel=51
key=C#2
lovel=26
offset=8030
sample=Timpani_Soft_Mallet_sustain_MP_C#2_RR4.opus

<region>
hivel=51
key=C#3
lovel=26
offset=160
sample=Timpani_Soft_Mallet_sustain_MP_C#3_RR4.opus

<region>
hivel=51
key=C2
lovel=26
offset=16437
sample=Timpani_Soft_Mallet_sustain_MP_C2_RR4.opus

<region>
hivel=51
key=C3
lovel=26
offset=547
sample=Timpani_Soft_Mallet_sustain_MP_C3_RR4.opus

<region>
hivel=51
key=D#2
lovel=26
offset=4993
sample=Timpani_Soft_Mallet_sustain_MP_D#2_RR4.opus

<region>
hivel=51
key=D#3
lovel=26
offset=737
sample=Timpani_Soft_Mallet_sustain_MP_D#3_RR4.opus

<region>
hivel=51
key=D2
lovel=26
offset=4425
sample=Timpani_Soft_Mallet_sustain_MP_D2_RR4.opus

<region>
hivel=51
key=D3
lovel=26
offset=1132
sample=Timpani_Soft_Mallet_sustain_MP_D3_RR4.opus

<region>
hivel=51
key=E2
lovel=26
offset=5579
sample=Timpani_Soft_Mallet_sustain_MP_E2_RR4.opus

<region>
hivel=51
key=E3
lovel=26
offset=392
sample=Timpani_Soft_Mallet_sustain_MP_E3_RR4.opus

<region>
hivel=51
key=F#2
lovel=26
offset=2627
sample=Timpani_Soft_Mallet_sustain_MP_F#2_RR4.opus

<region>
hivel=51
key=F#3
lovel=26
offset=97
sample=Timpani_Soft_Mallet_sustain_MP_F#3_RR4.opus

<region>
hivel=51
key=F2
lovel=26
offset=17210
sample=Timpani_Soft_Mallet_sustain_MP_F2_RR4.opus

<region>
hivel=51
key=F3
lovel=26
offset=1169
sample=Timpani_Soft_Mallet_sustain_MP_F3_RR4.opus

<region>
hivel=51
key=G#2
lovel=26
offset=4244
sample=Timpani_Soft_Mallet_sustain_MP_G#2_RR4.opus

<region>
hivel=51
key=G#3
lovel=26
offset=316
sample=Timpani_Soft_Mallet_sustain_MP_G#3_RR4.opus

<region>
hivel=51
key=G2
lovel=26
offset=3602
sample=Timpani_Soft_Mallet_sustain_MP_G2_RR4.opus

<region>
hivel=51
key=G3
lovel=26
offset=1345
sample=Timpani_Soft_Mallet_sustain_MP_G3_RR4.opus

<region>
hivel=25
key=A#2
lovel=0
offset=4342
sample=Timpani_Soft_Mallet_sustain_P_A#2_RR4.opus

<region>
hivel=25
key=A2
lovel=0
offset=3873
sample=Timpani_Soft_Mallet_sustain_P_A2_RR4.opus

<region>
hivel=25
key=A3
lovel=0
offset=4686
sample=Timpani_Soft_Mallet_sustain_P_A3_RR4.opus

<region>
hivel=25
key=B2
lovel=0
offset=1257
sample=Timpani_Soft_Mallet_sustain_P_B2_RR4.opus

<region>
hivel=25
key=C#2
lovel=0
offset=2694
sample=Timpani_Soft_Mallet_sustain_P_C#2_RR4.opus

<region>
hivel=25
key=C#3
lovel=0
sample=Timpani_Soft_Mallet_sustain_P_C#3_RR4.opus

<region>
hivel=25
key=C2
lovel=0
offset=102
sample=Timpani_Soft_Mallet_sustain_P_C2_RR4.opus

<region>
hivel=25
key=C3
lovel=0
offset=3021
sample=Timpani_Soft_Mallet_sustain_P_C3_RR4.opus

<region>
hivel=25
key=D#2
lovel=0
offset=3918
sample=Timpani_Soft_Mallet_sustain_P_D#2_RR4.opus

<region>
hivel=25
key=D#3
lovel=0
offset=5522
sample=Timpani_Soft_Mallet_sustain_P_D#3_RR4.opus

<region>
hivel=25
key=D2
lovel=0
offset=1899
sample=Timpani_Soft_Mallet_sustain_P_D2_RR4.opus

<region>
hivel=25
key=D3
lovel=0
offset=3780
sample=Timpani_Soft_Mallet_sustain_P_D3_RR4.opus

<region>
hivel=25
key=E2
lovel=0
offset=5270
sample=Timpani_Soft_Mallet_sustain_P_E2_RR4.opus

<region>
hivel=25
key=E3
lovel=0
offset=6079
sample=Timpani_Soft_Mallet_sustain_P_E3_RR4.opus

<region>
hivel=25
key=F#2
lovel=0
offset=2911
sample=Timpani_Soft_Mallet_sustain_P_F#2_RR4.opus

<region>
hivel=25
key=F#3
lovel=0
offset=4950
sample=Timpani_Soft_Mallet_sustain_P_F#3_RR4.opus

<region>
hivel=25
key=F2
lovel=0
offset=14716
sample=Timpani_Soft_Mallet_sustain_P_F2_RR4.opus

<region>
hivel=25
key=F3
lovel=0
offset=5324
sample=Timpani_Soft_Mallet_sustain_P_F3_RR4.opus

<region>
hivel=25
key=G#2
lovel=0
offset=4286
sample=Timpani_Soft_Mallet_sustain_P_G#2_RR4.opus

<region>
hivel=25
key=G#3
lovel=0
offset=5063
sample=Timpani_Soft_Mallet_sustain_P_G#3_RR4.opus

<region>
hivel=25
key=G2
lovel=0
offset=7122
sample=Timpani_Soft_Mallet_sustain_P_G2_RR4.opus

<region>
hivel=25
key=G3
lovel=0
offset=7157
sample=Timpani_Soft_Mallet_sustain_P_G3_RR4.opus

